<svg xmlns="http://www.w3.org/2000/svg" xmlns:xlink="http://www.w3.org/1999/xlink" width="1457.173" height="622.451" viewBox="0 0 1457.173 622.451">
    <defs>
        <linearGradient id="a" x2="1" y2="0.985" gradientUnits="objectBoundingBox">
            <stop offset="0" stop-color="#ffca0f" />
            <stop offset="0.485" stop-color="#fcb922" stop-opacity="0.961" />
            <stop offset="1" stop-color="#f8a637" stop-opacity="0.922" />
        </linearGradient>
    </defs>
    <g transform="translate(-590.919 -376.044)">
        <path d="M0,0H1457.172V565.709s-282.161-66.8-433.555-60.616c-300.977,12.29-334.363,64.6-599.384,72.606C180.676,585.057,0,524.049,0,524.049Z" transform="translate(590.919 376.044)" fill="url(#a)" />
        <path d="M1398.57,852.71c-20.938-32.023-8.513-72.97,27.752-91.458L2113.53,410.911V617.264L1652.394,852.353c-104.467,5.4-175.022,15.84-236.31,27.142Z" transform="translate(-65.439 30.058)" fill="#fff" opacity="0.1" />
        <path d="M915.762,891.509l-25.37-38.8c-20.938-32.023-8.512-72.97,27.753-91.458l679.231-346.274h154.755l24.593,37.612c20.938,32.022,8.512,72.969-27.753,91.458L1019.337,916.016A83.329,83.329,0,0,1,981.5,925C955.291,925,929.806,912.99,915.762,891.509Z" transform="translate(-65.439 -38.933)" fill="#fff" opacity="0.1" />
        <g transform="translate(590.919 850.503)">
            <path d="M0,0C91.773,1.019,149.615,29.878,295.27,65.839S767.737,90.917,767.737,90.917,328.239,212.11,0,82.39" fill="#fff" opacity="0.1" />
            <path d="M0,68.972S269.418,15.453,451.733,4.006s438.16,10.433,438.16,10.433S817.107,16.166,523.1,76.151,0,68.972,0,68.972Z" transform="translate(101.661 46.922)" fill="#fff" opacity="0.1" />
            <path d="M0,26.053C85.922,1.464,236.081-11.447,398.055,13.4V101.34S143.075,31.851,0,26.053Z" transform="translate(1058.261 30.595)" fill="#fff" opacity="0.2" />
        </g>
    </g>
</svg>