<svg xmlns="http://www.w3.org/2000/svg" xmlns:xlink="http://www.w3.org/1999/xlink" width="1938" height="905.399" viewBox="0 0 1938 905.399"><defs><linearGradient id="a" y1="0.021" x2="1" y2="0.978" gradientUnits="objectBoundingBox"><stop offset="0" stop-color="#ffca0f"/><stop offset="0.5" stop-color="#fcb922" stop-opacity="0.957"/><stop offset="1" stop-color="#f8a637" stop-opacity="0.918"/></linearGradient></defs><g transform="translate(-4.068 -57.885)"><rect width="1938" height="752" transform="translate(4.068 125.482)" fill="url(#a)"/><g transform="translate(-781.268 -374.557)"><path d="M3513.231-7371.677l-33.731-51.588c-27.839-42.577-11.317-97.019,36.9-121.6l903.095-460.4H4625.25l32.7,50.008c27.837,42.577,11.317,97.019-36.9,121.6l-970.1,494.562a110.79,110.79,0,0,1-50.312,11.94C3565.789-7327.151,3531.906-7343.117,3513.231-7371.677Z" transform="translate(-2382.661 8505.245)" fill="#fff" opacity="0.1"/><path d="M4215.87-7344.839a93.438,93.438,0,0,1-26.976-26.838l-33.73-51.588c-27.837-42.576-11.319-97.02,36.9-121.6l913.7-465.8v274.363l-767.885,391.47Z" transform="translate(-2382.661 8596.975)" fill="#fff" opacity="0.1"/><path d="M92.892.144,1180.308,56.893c54.049,2.821,100.15,46.282,102.971,97.074l3.418,61.542c2.821,50.792-38.708,89.68-92.757,86.859L106.524,245.62C52.476,242.8,6.374,199.338,3.553,148.546L.136,87C-2.685,36.212,38.844-2.676,92.892.144Z" transform="translate(1345.435 1075.857) rotate(-30)" fill="#fff" opacity="0.05"/></g></g></svg>